<?xml version="1.0" encoding="UTF-8" standalone="no"?>
<!-- Created with Inkscape (http://www.inkscape.org/) -->

<svg
   width="32.000004"
   height="22.544983"
   viewBox="0 0 8.4666674 5.9650267"
   version="1.1"
   id="svg1"
   xml:space="preserve"
   xmlns="http://www.w3.org/2000/svg"
   xmlns:svg="http://www.w3.org/2000/svg"><defs
     id="defs1" /><g
     id="layer1"
     transform="translate(-5.0994178,-187.82109)"><path
       d="m 13.389078,188.75269 c -0.09737,-0.36672 -0.384175,-0.65538 -0.748506,-0.75354 -0.6604,-0.17806 -3.3078207,-0.17806 -3.3078207,-0.17806 0,0 -2.6476854,0 -3.3078208,0.17806 -0.3643313,0.0979 -0.6511397,0.38682 -0.7485067,0.75354 -0.177006,0.66463 -0.177006,2.05105 -0.177006,2.05105 0,0 0,1.38668 0.177006,2.05105 0.09737,0.36671 0.3841754,0.65537 0.7485067,0.75326 0.6604,0.17807 3.3078208,0.17807 3.3078208,0.17807 0,0 2.6476857,0 3.3078207,-0.17807 0.364331,-0.0979 0.65114,-0.38682 0.748506,-0.75326 0.177007,-0.66464 0.177007,-2.05105 0.177007,-2.05105 0,0 0,-1.38642 -0.177007,-2.05105 z m -4.922308,3.30993 v -2.51777 l 2.212975,1.25889 z"
       id="path1-7"
       style="fill:#ffffff;fill-opacity:1;stroke-width:0.264583" /></g></svg>
