<?xml version="1.0" encoding="UTF-8" standalone="no"?>
<!-- Created with Inkscape (http://www.inkscape.org/) -->

<svg
   width="27.995945"
   height="27.309631"
   viewBox="0 0 7.4072602 7.2256733"
   version="1.1"
   id="svg1"
   xml:space="preserve"
   xmlns="http://www.w3.org/2000/svg"
   xmlns:svg="http://www.w3.org/2000/svg"><defs
     id="defs1" /><g
     id="layer1"
     transform="translate(-16.523775,-195.30504)"><path
       d="m 20.226867,195.30529 c 2.04656,0 3.70417,1.65762 3.70417,3.70417 -5.3e-4,1.59147 -1.01573,3.0054 -2.52333,3.51419 -0.18521,0.037 -0.25479,-0.0788 -0.25479,-0.17594 0,-0.12515 0.005,-0.52335 0.005,-1.01865 0,-0.34713 -0.11563,-0.56938 -0.25004,-0.68527 0.82418,-0.0926 1.69016,-0.40746 1.69016,-1.8288 0,-0.40746 -0.14367,-0.73634 -0.37967,-0.99536 0.037,-0.0926 0.16668,-0.47228 -0.037,-0.98161 0,0 -0.31035,-0.10186 -1.01864,0.37968 -0.29633,-0.0833 -0.61119,-0.12488 -0.92604,-0.12488 -0.31486,0 -0.62971,0.0415 -0.92604,0.12488 -0.70829,-0.47678 -1.01865,-0.37968 -1.01865,-0.37968 -0.20373,0.50933 -0.0741,0.889 -0.037,0.98161 -0.23601,0.25929 -0.37968,0.59266 -0.37968,0.99536 0,1.41684 0.86122,1.73646 1.6854,1.82906 -0.10663,0.0926 -0.20373,0.2548 -0.23627,0.4953 -0.21299,0.0974 -0.7456,0.2548 -1.07871,-0.30559 -0.0696,-0.11112 -0.27781,-0.38417 -0.56938,-0.37968 -0.31036,0.005 -0.12489,0.17595 0.005,0.24527 0.15742,0.0878 0.33787,0.41672 0.37967,0.52335 0.0741,0.20822 0.31486,0.60669 1.2454,0.43524 0,0.31035 0.005,0.60192 0.005,0.68977 0,0.0974 -0.0696,0.20822 -0.2548,0.17594 -1.51315,-0.50376 -2.53365,-1.91955 -2.53285,-3.51446 0,-2.04655 1.65761,-3.70416 3.70416,-3.70416 z"
       id="path1"
       style="fill:#ffffff;fill-opacity:1;stroke-width:0.264583" /></g></svg>
