<?xml version="1.0" encoding="UTF-8" standalone="no"?>
<!-- Created with Inkscape (http://www.inkscape.org/) -->

<svg
   width="28"
   height="24.733032"
   viewBox="0 0 7.4083331 6.5439481"
   version="1.1"
   id="svg1"
   xml:space="preserve"
   xmlns="http://www.w3.org/2000/svg"
   xmlns:svg="http://www.w3.org/2000/svg"><defs
     id="defs1" /><g
     id="layer1"
     transform="translate(5.1173063,-197.50256)"><path
       d="m 0.6852708,197.94295 c -0.8493124,0.63976 -1.7629187,1.93675 -2.0984103,2.63287 -0.3352271,-0.69612 -1.2490979,-1.99311 -2.0984104,-2.63287 -0.612775,-0.46143 -1.6057563,-0.81862 -1.6057563,0.31776 0,0.22675 0.1296458,1.90659 0.2058458,2.17938 0.2643188,0.948 1.2279313,1.18983 2.0851813,1.04351 -1.4983354,0.25586 -1.8793354,1.10305 -1.0562166,1.95051 1.5631583,1.60946 2.2468416,-0.40375 2.4219957,-0.91969 0.032544,-0.0952 0.04736,-0.13944 0.04736,-0.10028 0,-0.0392 0.015081,0.005 0.04736,0.10028 0.175155,0.51567 0.8585738,2.52889 2.4219967,0.91969 C 1.8793354,202.58665 1.4983354,201.73946 0,201.4836 c 0.85725,0.14632 1.8208625,-0.0955 2.0851812,-1.04351 0.0762,-0.27279 0.2058459,-1.95263 0.2058459,-2.17938 0,-1.13638 -0.9929813,-0.77919 -1.6057563,-0.31776 z"
       id="path1-4"
       style="fill:#ffffff;fill-opacity:1;stroke-width:0.264583" /></g></svg>
