<?xml version="1.0" encoding="UTF-8" standalone="no"?>
<!-- Created with Inkscape (http://www.inkscape.org/) -->

<svg
   width="97.155823"
   height="72.536163"
   viewBox="0 0 25.705811 19.19186"
   version="1.1"
   id="svg1"
   inkscape:version="1.4.2 (ebf0e940, 2025-05-08)"
   xml:space="preserve"
   sodipodi:docname="des-pool-04.svg"
   xmlns:inkscape="http://www.inkscape.org/namespaces/inkscape"
   xmlns:sodipodi="http://sodipodi.sourceforge.net/DTD/sodipodi-0.dtd"
   xmlns:xlink="http://www.w3.org/1999/xlink"
   xmlns="http://www.w3.org/2000/svg"
   xmlns:svg="http://www.w3.org/2000/svg"><sodipodi:namedview
     id="namedview1"
     pagecolor="#bfbfbf"
     bordercolor="#000000"
     borderopacity="0.25"
     inkscape:showpageshadow="true"
     inkscape:pageopacity="0.0"
     inkscape:pagecheckerboard="true"
     inkscape:deskcolor="#999999"
     inkscape:document-units="px"
     showborder="false"
     borderlayer="true"
     labelstyle="default"
     inkscape:antialias-rendering="true"
     inkscape:zoom="0.46585419"
     inkscape:cx="1546.6213"
     inkscape:cy="668.66416"
     inkscape:window-width="1696"
     inkscape:window-height="1026"
     inkscape:window-x="8"
     inkscape:window-y="51"
     inkscape:window-maximized="0"
     inkscape:current-layer="layer1"><inkscape:page
       x="0"
       y="0"
       width="25.705811"
       height="19.19186"
       id="page2"
       margin="0"
       bleed="0" /></sodipodi:namedview><defs
     id="defs1"><inkscape:path-effect
       effect="fillet_chamfer"
       id="path-effect24"
       is_visible="true"
       lpeversion="1"
       nodesatellites_param="F,0,0,1,0,19.048747,0,1 @ F,0,0,1,0,0,0,1 @ F,0,0,1,0,0,0,1 @ F,0,0,1,0,11.108614,0,1 @ F,0,0,1,0,0,0,1 @ F,0,0,1,0,0,0,1"
       radius="0"
       unit="px"
       method="auto"
       mode="F"
       chamfer_steps="1"
       flexible="false"
       use_knot_distance="true"
       apply_no_radius="true"
       apply_with_radius="true"
       only_selected="false"
       hide_knots="false" /><linearGradient
       id="linearGradient43"
       inkscape:collect="always"><stop
         style="stop-color:#fcffcc;stop-opacity:1;"
         offset="0.09864602"
         id="stop44" /><stop
         style="stop-color:#ffff01;stop-opacity:1;"
         offset="0.7524178"
         id="stop43" /></linearGradient><radialGradient
       inkscape:collect="always"
       xlink:href="#linearGradient43"
       id="radialGradient24"
       gradientUnits="userSpaceOnUse"
       gradientTransform="matrix(1.5249014,-0.24630368,0.32894355,1.6974921,-324.58872,48.424235)"
       cx="542.66504"
       cy="120.82032"
       fx="542.66504"
       fy="120.82032"
       r="38.125828" /></defs><g
     inkscape:label="Layer 1"
     inkscape:groupmode="layer"
     id="layer1"
     transform="translate(-53.079033,-82.952062)"><path
       id="path19"
       style="display:inline;fill:#ffffff;fill-opacity:1;stroke:none;stroke-width:0.366731;stroke-linecap:round;stroke-linejoin:round;stroke-opacity:1;paint-order:stroke fill markers"
       d="m 61.168368,91.640434 c -0.505629,2.287063 -0.59793,2.492366 -2.269034,5.519264 1.171757,2.79475 3.562319,4.999072 7.138532,4.984152 2.711906,-0.0113 5.397401,-1.60338 6.92692,-5.010312 -1.23638,-2.165465 -1.622394,-2.867412 -2.008324,-4.384197 -1.003281,0.891012 -3.028326,2.131564 -4.347817,2.132655 -2.243438,-0.0049 -4.296885,-1.205103 -5.440277,-3.241562 z"
       sodipodi:nodetypes="ccscccc"
       inkscape:export-filename="kologen-head.svg"
       inkscape:export-xdpi="96"
       inkscape:export-ydpi="96" /><path
       id="path20"
       style="display:inline;fill:#ffffff;fill-opacity:1;stroke:none;stroke-width:2.69201;stroke-linecap:round;stroke-linejoin:round;stroke-dasharray:none;stroke-opacity:1;paint-order:stroke fill markers"
       d="m 71.51222,86.676488 c -0.244278,0.08198 2.493699,0.320066 0.47525,4.812255 0.283727,1.49887 0.782389,2.770895 1.891052,4.675175 3.477677,-0.908891 5.289442,-4.598508 4.838252,-6.444626 -0.366623,-1.50003 -3.365186,-4.3312 -7.204554,-3.042804 z"
       sodipodi:nodetypes="scccs" /><path
       id="path22"
       style="display:inline;fill:url(#radialGradient24);fill-opacity:1;stroke:none;stroke-width:19.5782;stroke-linecap:round;stroke-linejoin:round;stroke-dasharray:none;stroke-opacity:1;paint-order:stroke fill markers"
       d="m 544.35857,52.747009 c -12.64997,5.898923 -22.09679,16.706547 -22.13179,31.032683 -1.5331,22.868288 16.31268,42.157338 40.29353,41.217968 18.3159,-0.71747 31.55847,-14.29804 35.5452,-31.519879 1.38066,-5.964198 -1.85751,-7.182259 -6.51845,-3.380943 -3.65462,2.980599 -8.70704,5.877417 -15.38868,6.732875 -17.77086,1.086104 -27.66479,-9.72751 -26.63812,-27.073042 0.008,-2.606221 0.46821,-5.028866 1.28921,-7.290102 3.54142,-9.754037 3.03568,-14.143336 -6.4509,-9.71956 z"
       sodipodi:nodetypes="ccscccc"
       inkscape:path-effect="#path-effect24"
       inkscape:original-d="m 562.68203,47.903613 c -20.65102,1.78578 -40.40461,15.148057 -40.45525,35.876079 -1.5331,22.868288 16.31268,42.157338 40.29353,41.217968 22.08501,-0.86511 36.79383,-20.43207 36.79409,-42.534015 -0.44984,-1.537083 -7.09762,12.310092 -23.15602,14.366068 -17.77086,1.086104 -27.66479,-9.72751 -26.63812,-27.073042 0.029,-9.277168 5.78421,-16.228268 13.16177,-21.853058 z"
       transform="matrix(0.13138179,0,0,0.1439055,-7.1755291,75.609627)" /><path
       id="path23"
       style="display:inline;fill:#ffffff;fill-opacity:1;stroke:none;stroke-width:2.69201;stroke-linecap:round;stroke-linejoin:round;stroke-dasharray:none;stroke-opacity:1;paint-order:stroke fill markers"
       d="m 53.147106,89.724422 c -0.451181,1.846107 1.360558,5.535746 4.838248,6.444626 2.185575,-3.753996 2.154542,-6.06325 2.32634,-9.518132 -3.4262,-1.119161 -6.713338,1.227315 -7.164586,3.073521 z"
       sodipodi:nodetypes="sccss" /></g></svg>
