<?xml version="1.0" encoding="UTF-8" standalone="no"?>
<!-- Created with Inkscape (http://www.inkscape.org/) -->

<svg
   width="280.50677"
   height="81.425949"
   viewBox="0 0 74.217415 21.543949"
   version="1.1"
   id="svg1"
   inkscape:version="1.4.2 (ebf0e940, 2025-05-08)"
   xml:space="preserve"
   sodipodi:docname="des-pool-04.svg"
   xmlns:inkscape="http://www.inkscape.org/namespaces/inkscape"
   xmlns:sodipodi="http://sodipodi.sourceforge.net/DTD/sodipodi-0.dtd"
   xmlns:xlink="http://www.w3.org/1999/xlink"
   xmlns="http://www.w3.org/2000/svg"
   xmlns:svg="http://www.w3.org/2000/svg"><sodipodi:namedview
     id="namedview1"
     pagecolor="#bfbfbf"
     bordercolor="#000000"
     borderopacity="0.25"
     inkscape:showpageshadow="true"
     inkscape:pageopacity="0.0"
     inkscape:pagecheckerboard="true"
     inkscape:deskcolor="#999999"
     inkscape:document-units="px"
     showborder="false"
     borderlayer="true"
     labelstyle="default"
     inkscape:antialias-rendering="true"
     inkscape:zoom="0.46585419"
     inkscape:cx="1546.6213"
     inkscape:cy="668.66416"
     inkscape:window-width="1696"
     inkscape:window-height="1026"
     inkscape:window-x="8"
     inkscape:window-y="51"
     inkscape:window-maximized="0"
     inkscape:current-layer="layer1"><inkscape:page
       x="0"
       y="0"
       width="74.217415"
       height="21.543949"
       id="page2"
       margin="0"
       bleed="0" /></sodipodi:namedview><defs
     id="defs1"><linearGradient
       id="linearGradient43"
       inkscape:collect="always"><stop
         style="stop-color:#fcffcc;stop-opacity:1;"
         offset="0.09864602"
         id="stop44" /><stop
         style="stop-color:#ffff01;stop-opacity:1;"
         offset="0.7524178"
         id="stop43" /></linearGradient><inkscape:path-effect
       effect="fillet_chamfer"
       id="path-effect19"
       is_visible="true"
       lpeversion="1"
       nodesatellites_param="F,0,0,1,0,19.048747,0,1 @ F,0,0,1,0,0,0,1 @ F,0,0,1,0,0,0,1 @ F,0,0,1,0,11.108614,0,1 @ F,0,0,1,0,0,0,1 @ F,0,0,1,0,0,0,1"
       radius="0"
       unit="px"
       method="auto"
       mode="F"
       chamfer_steps="1"
       flexible="false"
       use_knot_distance="true"
       apply_no_radius="true"
       apply_with_radius="true"
       only_selected="false"
       hide_knots="false" /><radialGradient
       inkscape:collect="always"
       xlink:href="#linearGradient43"
       id="radialGradient44"
       cx="542.66504"
       cy="120.82032"
       fx="542.66504"
       fy="120.82032"
       r="38.125828"
       gradientTransform="matrix(1.5249014,-0.24630368,0.32894355,1.6974921,-324.58872,48.424235)"
       gradientUnits="userSpaceOnUse" /></defs><g
     inkscape:label="Layer 1"
     inkscape:groupmode="layer"
     id="layer1"
     transform="translate(-25.724392,-18.934822)"><g
       inkscape:label="Layer 1"
       id="layer1-3"
       transform="matrix(0.07539449,0,0,0.07539449,-79.337045,-54.877226)"
       inkscape:export-filename="../Assets/logo-white.svg"
       inkscape:export-xdpi="96"
       inkscape:export-ydpi="96"><path
         id="path32"
         style="-inkscape-font-specification:'Nunito, Bold';fill:#ffffff;fill-opacity:1;stroke-width:1.4192;stroke-linecap:round;stroke-linejoin:round;stroke-dashoffset:48.5383"
         d="m 1579.2188,1125.7721 v 0 c -6.5175,0 -12.6095,1.2357 -18.1692,3.7308 -5.4149,2.3585 -10.1419,5.7945 -14.0742,10.2376 a 3.2920885,3.3709597 0 0 0 -0.037,0.044 c -3.7982,4.4448 -6.7518,9.7639 -8.8718,15.8696 a 3.2920885,3.3709597 0 0 0 -0.016,0.043 c -2.01,6.0365 -2.9883,12.746 -2.9883,20.0908 0,9.7572 1.7676,18.4869 5.396,26.0545 3.6134,7.5376 8.8077,13.5715 15.4438,17.8705 a 3.2920885,3.3709597 0 0 0 0.041,0.028 c 6.6849,4.1908 14.5287,6.2525 23.2755,6.2525 8.0473,0 15.42,-2.0968 21.8293,-6.2858 a 3.2920885,3.3709597 0 0 0 0.017,-0.016 c 1.866,-1.2339 3.5176,-2.6371 5.0458,-4.1313 v 2.8355 c 0,7.5931 -1.887,12.6478 -5.3387,15.9743 a 3.2920885,3.3709597 0 0 0 -0.072,0.071 c -3.3365,3.4165 -8.5859,5.3486 -16.4186,5.3486 -3.2251,0 -7.3084,-0.4229 -12.1788,-1.2958 a 3.2920885,3.3709597 0 0 0 -0.07,-0.016 c -4.4604,-0.7026 -9.3287,-2.3657 -14.5866,-5.0577 l 0.077,0.043 c -2.4509,-1.3384 -5.2826,-1.7967 -7.8881,-1.0344 -2.3171,0.6778 -4.4017,2.0173 -6.0322,3.8539 a 3.2920885,3.3709597 0 0 0 -0.1107,0.132 c -1.4447,1.8079 -2.441,3.9365 -2.9203,6.2265 a 3.2920885,3.3709597 0 0 0 -0.043,0.2612 c -0.3247,2.4932 0.017,5.0235 0.9865,7.3403 a 3.2920885,3.3709597 0 0 0 0.081,0.1796 c 1.2672,2.5953 3.4971,4.5788 6.2845,6.0809 a 3.2920885,3.3709597 0 0 0 0.033,0.017 c 5.4183,2.8419 11.401,4.9239 17.9148,6.2578 a 3.2920885,3.3709597 0 0 0 0.016,0 c 6.5889,1.3229 13.3647,1.9828 20.3166,1.9828 15.5455,0 27.9481,-4.0304 36.5771,-12.4455 8.6605,-8.4455 12.8312,-20.9768 12.8312,-36.7997 v -73.9031 c 0,-4.5469 -1.2123,-8.5879 -3.9633,-11.4051 -2.7269,-2.7923 -6.6177,-4.0585 -10.9522,-4.0585 -4.2297,0 -8.0724,1.2859 -10.8772,3.9889 a 3.2920885,3.3709597 0 0 0 -0.072,0.071 c -1.6664,1.7064 -2.6028,3.9524 -3.2127,6.3978 -1.5647,-1.5739 -3.2602,-3.0543 -5.2074,-4.3311 -6.3117,-4.3469 -13.7746,-6.51 -22.0598,-6.51 z m 6.3655,24.9889 c 6.4919,0 11.0864,2.0925 14.7372,6.4906 a 3.2920885,3.3709597 0 0 0 0.028,0.031 c 3.6171,4.2484 5.5633,10.2411 5.5633,18.5174 0,5.4956 -0.9285,10.1 -2.6846,13.9208 a 3.2920885,3.3709597 0 0 0 -0.02,0.038 c -1.6484,3.7139 -3.8909,6.4056 -6.8451,8.3503 -2.9147,1.9185 -6.4111,2.9196 -10.7788,2.9196 -6.4917,0 -11.0864,-2.0919 -14.7373,-6.49 -3.6441,-4.3898 -5.5908,-10.4633 -5.5908,-18.7394 0,-5.5041 0.8792,-10.0529 2.5062,-13.733 1.7704,-3.7219 4.0849,-6.4399 7.0425,-8.3869 2.9144,-1.9183 6.4119,-2.9194 10.7794,-2.9194 z"
         inkscape:export-filename="/Users/kolo/Documents/work/Night-Kolo-logo-01.svg"
         inkscape:export-xdpi="96"
         inkscape:export-ydpi="96" /><path
         style="-inkscape-font-specification:'Nunito, Bold';fill:#ffffff;fill-opacity:1;stroke-width:1.4192;stroke-linecap:round;stroke-linejoin:round;stroke-dashoffset:48.5383"
         d="m 1522.7325,1143.1993 c -4.386,0 -8.3607,1.4921 -11.0388,4.547 -2.7096,2.9663 -3.876,7.1237 -3.876,11.8763 v 53.6062 c 0,4.6566 1.1893,8.7952 3.8324,11.8399 2.6784,3.0851 6.6748,4.5854 11.0824,4.5854 4.5112,0 8.5684,-1.4743 11.2695,-4.5854 2.643,-3.0447 3.8323,-7.1833 3.8323,-11.8399 v -53.6062 c 0,-4.7591 -1.2602,-8.953 -4.0838,-11.8962 -2.678,-3.0396 -6.6427,-4.5271 -11.018,-4.5271 z"
         id="path33"
         sodipodi:nodetypes="scssssssscs"
         inkscape:export-filename="/Users/kolo/Documents/img/work/Night-Kolo-logo-01.png"
         inkscape:export-xdpi="96"
         inkscape:export-ydpi="96" /><path
         style="-inkscape-font-specification:'Nunito, Bold';fill:#ffffff;fill-opacity:1;stroke-width:1.4192;stroke-linecap:round;stroke-linejoin:round;stroke-dashoffset:48.5383"
         d="m 1722.3163,1098.1391 h -9e-4 c -4.3343,0 -8.2382,1.2602 -11.0663,3.9859 -0.024,0.024 -0.048,0.048 -0.072,0.074 -2.7511,2.8172 -3.9629,6.8574 -3.9629,11.4044 v 14.0973 h -5.7059 c -3.5479,0 -6.8015,0.9578 -9.1679,3.1949 -2.3951,2.2635 -3.4977,5.6186 -3.4977,9.1971 0,3.4791 1.1209,6.7665 3.402,9.1022 0.031,0.031 0.062,0.062 0.095,0.092 2.3666,2.2368 5.6208,3.197 9.1688,3.197 h 5.705 v 37.5153 c 0,8.4365 1.3678,15.7392 4.2703,21.8251 0,0.014 0.014,0.018 0.016,0.028 2.9234,5.9872 7.5045,10.6705 13.4413,13.7804 0.014,0 0.018,0.014 0.028,0.016 13.2436,6.7803 26.3541,4.4663 33.1779,2.3169 0.043,-0.014 0.085,-0.027 0.1278,-0.043 2.8129,-1.0167 5.1576,-3.1536 6.2538,-5.9356 1.0557,-2.5011 1.5642,-5.2596 1.5642,-8.1841 0,-3.6337 -0.2251,-6.5247 -2.4184,-8.8277 -1.5869,-1.7731 -4.0548,-2.7941 -6.394,-2.5944 -0.018,-2e-4 -0.037,-2e-4 -0.055,0 -1.4338,0.1472 -2.9986,0.4283 -4.7254,0.8365 -6.1684,1.4573 -15.2712,2.1847 -15.2712,-14.5659 V 1152.48 h 16.5812 c 3.548,0 6.8017,-0.9609 9.1681,-3.1978 0.033,-0.03 0.064,-0.061 0.095,-0.092 2.2811,-2.3356 3.3997,-5.6223 3.3997,-9.1014 0,-3.5785 -1.1006,-6.9336 -3.4957,-9.1972 -2.3662,-2.2371 -5.6199,-3.1949 -9.1679,-3.1949 h -16.5812 v -14.0973 c 0,-4.5469 -1.2096,-8.5879 -3.9608,-11.4049 -2.7269,-2.7923 -6.6167,-4.0589 -10.9512,-4.0589 z"
         id="path31"
         sodipodi:nodetypes="csscscsssscscsccscsccscccsscsscssscsscc" /><path
         style="-inkscape-font-specification:'Nunito, Bold';fill:#ffffff;fill-opacity:1;stroke-width:1.4192;stroke-linecap:round;stroke-linejoin:round;stroke-dashoffset:48.5383"
         d="m 1620.4783,1084.7065 c -4.3343,0 -8.2219,1.2665 -10.9488,4.0587 -2.7514,2.8172 -3.9638,6.8573 -3.9638,11.4043 v 114.0216 c 0,4.5469 1.2087,8.6022 3.8927,11.5222 a 3.2920885,3.3709597 0 0 0 0.072,0.074 c 2.7269,2.7924 6.6146,4.0588 10.949,4.0588 4.494,0 8.4654,-1.2308 11.2035,-4.0789 2.738,-2.8482 3.9006,-6.9277 3.9006,-11.5758 v -42.0391 c 0,-6.6616 1.732,-11.4888 5.1003,-15.1549 3.4973,-3.797 7.925,-5.6581 14.0985,-5.6581 4.9901,0 7.9105,1.3275 9.8127,3.7389 a 3.2920885,3.3709597 0 0 0 0.045,0.06 c 1.9832,2.4 3.347,6.8939 3.347,13.7545 v 45.3024 c 0,4.5469 1.2089,8.6022 3.8927,11.5222 a 3.2920885,3.3709597 0 0 0 0.1424,0.1457 c 2.8283,2.7259 6.7325,3.986 11.0672,3.986 4.3343,0 8.2217,-1.2665 10.9487,-4.0589 a 3.2920885,3.3709597 0 0 0 0.072,-0.074 c 2.6841,-2.92 3.8925,-6.9753 3.8925,-11.5222 v -46.4542 c 0,-9.0045 -1.2083,-16.6032 -3.8208,-22.8099 -2.6056,-6.3162 -6.6806,-11.2703 -12.0642,-14.4618 -5.3884,-3.1943 -12.0521,-4.6755 -19.8345,-4.6755 -7.8866,0 -15.1471,1.9472 -21.5365,5.84 -1.874,1.1268 -3.5649,2.472 -5.158,3.9295 v -35.3892 c 0,-4.558 -1.3182,-8.6331 -4.1827,-11.4242 -2.7257,-2.774 -6.6005,-4.0393 -10.9215,-4.0393 z"
         id="path30" /><path
         style="-inkscape-font-specification:'Nunito, Bold';fill:#ffffff;fill-opacity:1;stroke-width:1.4192;stroke-linecap:round;stroke-linejoin:round;stroke-dashoffset:48.5383"
         d="m 1485.9369,1084.7036 c -4.2297,0 -8.0599,1.2914 -10.7625,4.0587 -0.026,0.025 -0.05,0.051 -0.075,0.078 -2.5532,2.7888 -3.7034,6.6498 -3.7034,10.942 v 69.8622 l -49.8927,-76.5265 c -0.016,-0.016 -0.025,-0.031 -0.035,-0.047 -2.071,-2.6507 -3.9209,-4.5835 -5.8648,-5.9408 -2.2291,-1.8075 -8.3275,-2.4266 -8.3275,-2.4266 v 0 c 0,0 -7.4969,1.5116 -10.0829,4.3251 -2.6002,2.8399 -3.7035,6.8179 -3.7035,11.3285 v 114.2095 c 0,4.4009 1.1267,8.3213 3.7035,11.1356 0.026,0.027 0.048,0.053 0.075,0.078 2.7026,2.7674 6.5329,4.0586 10.7626,4.0586 4.2297,0 8.052,-1.2991 10.6506,-4.1374 2.5765,-2.8144 3.7034,-6.7337 3.7034,-11.1348 v -64.7503 l 49.887,71.4116 c 0.016,0.017 0.027,0.035 0.041,0.054 2.1207,2.7145 4.0896,4.7838 6.1329,6.2324 0.031,0.021 0.061,0.043 0.094,0.061 2.4392,1.6059 5.4123,2.2635 8.7162,2.2635 3.7308,0 7.2373,-1.4554 9.6007,-4.2213 2.3764,-2.7807 3.4385,-6.5222 3.4385,-10.6672 v -115.1712 c 0,-4.2922 -1.1483,-8.1533 -3.7015,-10.942 -2.5986,-2.8381 -6.4201,-4.1373 -10.6498,-4.1373 z"
         id="path29"
         sodipodi:nodetypes="cscsccccsscssscsssccsscssssscc" /><path
         style="-inkscape-font-specification:'Nunito, Bold';fill:#ffffff;fill-opacity:1;stroke-width:1.32845;stroke-linecap:round;stroke-linejoin:round;stroke-dashoffset:48.5383"
         d="m 1522.7326,1123.8753 c -4.2995,0 -8.1174,-1.2082 -10.901,-4.0646 l -0.055,-0.057 c -2.7508,-2.8763 -4.0828,-14.2531 -4.0828,-19.0152 0,-4.6558 1.3391,-8.8853 4.0199,-11.8532 0.037,-0.043 0.078,-0.081 0.1178,-0.1206 2.8225,-2.804 6.6021,-4.0648 10.9017,-4.0648 4.3961,0 8.2011,1.2396 10.9564,4.1203 0.023,0.021 0.04,0.044 0.06,0.064 2.6808,2.9679 4.023,7.1975 4.023,11.8531 0,4.7622 -1.3318,16.1391 -4.0827,19.0153 -2.755,2.8807 -6.561,4.1201 -10.957,4.1201 z"
         id="path21"
         sodipodi:nodetypes="cscsccsscsscc" /><path
         id="path9"
         style="display:inline;fill:#ffffff;fill-opacity:1;stroke:none;stroke-width:4.86416;stroke-linecap:round;stroke-linejoin:round;stroke-opacity:1;paint-order:stroke fill markers"
         d="m 1835.6774,1083.5911 c -11.8721,28.7092 -13.5506,31.1783 -42.3502,66.8669 8.8687,39.2041 35.0174,73.503 81.7645,81.5448 35.4492,6.0979 74.1941,-8.5123 102.0196,-49.491 -11.1622,-31.1331 -14.5876,-41.191 -16.1352,-61.8922 -15.1571,9.3277 -44.4656,20.8678 -61.7034,17.843 -29.2926,-5.2313 -53.3506,-25.6377 -63.5953,-54.8715 z"
         sodipodi:nodetypes="ccscccc"
         inkscape:export-filename="kologen-head.svg"
         inkscape:export-xdpi="96"
         inkscape:export-ydpi="96" /><path
         id="path10"
         style="display:inline;fill:#ffffff;fill-opacity:1;stroke:none;stroke-width:35.7057;stroke-linecap:round;stroke-linejoin:round;stroke-dasharray:none;stroke-opacity:1;paint-order:stroke fill markers"
         d="m 1982.2224,1042.5756 c -3.3796,0.5082 31.8357,9.9242 -4.8758,63.9526 0.2539,20.2318 3.8377,37.9956 13.9332,65.4229 47.519,-3.8622 79.6823,-47.8834 78.0408,-73.0367 -1.334,-20.4379 -33.9807,-64.3251 -87.0982,-56.3388 z"
         sodipodi:nodetypes="scccs" /><path
         id="path11"
         style="display:inline;fill:url(#radialGradient44);fill-opacity:1;stroke:none;stroke-width:19.5782;stroke-linecap:round;stroke-linejoin:round;stroke-dasharray:none;stroke-opacity:1;paint-order:stroke fill markers"
         d="m 544.35857,52.747009 c -12.64997,5.898923 -22.09679,16.706547 -22.13179,31.032683 -1.5331,22.868288 16.31268,42.157338 40.29353,41.217968 18.3159,-0.71747 31.55847,-14.29804 35.5452,-31.519879 1.38066,-5.964198 -1.85751,-7.182259 -6.51845,-3.380943 -3.65462,2.980599 -8.70704,5.877417 -15.38868,6.732875 -17.77086,1.086104 -27.66479,-9.72751 -26.63812,-27.073042 0.008,-2.606221 0.46821,-5.028866 1.28921,-7.290102 3.54142,-9.754037 3.03568,-14.143336 -6.4509,-9.71956 z"
         sodipodi:nodetypes="ccscccc"
         inkscape:path-effect="#path-effect19"
         inkscape:original-d="m 562.68203,47.903613 c -20.65102,1.78578 -40.40461,15.148057 -40.45525,35.876079 -1.5331,22.868288 16.31268,42.157338 40.29353,41.217968 22.08501,-0.86511 36.79383,-20.43207 36.79409,-42.534015 -0.44984,-1.537083 -7.09762,12.310092 -23.15602,14.366068 -17.77086,1.086104 -27.66479,-9.72751 -26.63812,-27.073042 0.029,-9.277168 5.78421,-16.228268 13.16177,-21.853058 z"
         transform="matrix(1.7161176,0.30259785,-0.33144234,1.879703,979.88702,716.78634)" /><path
         id="path16"
         style="display:inline;fill:#ffffff;fill-opacity:1;stroke:none;stroke-width:35.7057;stroke-linecap:round;stroke-linejoin:round;stroke-dasharray:none;stroke-opacity:1;paint-order:stroke fill markers"
         d="m 1735.3161,1040.0895 c -10.1453,23.0748 5.0218,75.4419 48.3543,95.3235 37.1943,-44.0011 42.1076,-74.2362 52.3089,-118.9684 -42.1756,-22.50977 -90.5168,0.5691 -100.6632,23.6451 z"
         sodipodi:nodetypes="sccss" /><path
         id="path36"
         style="-inkscape-font-specification:'Nunito, Bold';fill:#ffffff;fill-opacity:1;stroke-width:1.42671;stroke-linecap:round;stroke-linejoin:round;stroke-dashoffset:48.5383"
         d="m 2326.8983,1123.6267 c -7.5796,0 -14.537,1.2366 -20.8081,3.7557 -6.258,2.3834 -11.7146,5.9977 -16.242,10.7896 -4.5302,4.6634 -8.0266,10.3202 -10.4608,16.8564 a 3.3454736,3.4407177 0 0 0 -0.017,0.04 c -2.3201,6.4573 -3.4458,13.7288 -3.4458,21.7656 -2e-4,10.6441 2.0697,20.1239 6.3009,28.2651 a 3.3454736,3.4407177 0 0 0 0.02,0.021 c 4.2192,7.9787 10.2501,14.2571 17.8933,18.6083 7.673,4.3688 16.6584,6.503 26.7653,6.503 7.5717,0 14.5177,-1.1635 20.7813,-3.5441 a 3.3454736,3.4407177 0 0 0 0.061,-0.017 c 6.2351,-2.5092 11.6692,-6.1094 16.1948,-10.7637 a 3.3454736,3.4407177 0 0 0 0.036,-0.037 c 4.5198,-4.7894 7.9504,-10.5178 10.257,-17.0632 2.4465,-6.5808 3.6431,-13.9236 3.6432,-21.9688 -10e-5,-10.6436 -2.0712,-20.0715 -6.314,-28.0953 -4.2199,-7.979 -10.2473,-14.2549 -17.8907,-18.6064 -7.673,-4.3687 -16.6611,-6.505 -26.7683,-6.5052 z m 0,25.4928 c 6.3157,-2e-4 10.8676,2.1121 14.5988,6.6269 a 3.3454736,3.4407177 0 0 0 0.026,0.031 c 3.5735,4.2157 5.6547,11.0945 5.6566,21.056 0,6.5762 -0.9742,11.9099 -2.7588,16.0396 a 3.3454736,3.4407177 0 0 0 -0.02,0.04 c -1.69,4.0553 -3.9689,6.8937 -6.9238,8.8474 -2.9924,1.9783 -6.4201,2.9789 -10.5763,2.9795 -6.3044,10e-5 -10.8462,-2.1064 -14.5733,-6.6044 -3.6396,-4.5199 -5.7022,-11.4833 -5.7075,-21.3004 0,-6.5846 0.9199,-11.8686 2.5776,-15.8592 1.8161,-4.1961 4.1554,-7.0155 7.0539,-8.8251 a 3.3454736,3.4407177 0 0 0 0.071,-0.048 c 2.9924,-1.9784 6.4173,-2.981 10.5736,-2.981 z" /><path
         id="path35"
         style="-inkscape-font-specification:'Nunito, Bold';fill:#ffffff;fill-opacity:1;stroke-width:1.42671;stroke-linecap:round;stroke-linejoin:round;stroke-dashoffset:48.5383"
         d="m 2189.1515,1123.6202 c -7.5776,0 -14.536,1.2353 -20.8059,3.7527 -6.2558,2.3823 -11.7111,5.9972 -16.2384,10.7862 -4.5327,4.6648 -8.0316,10.3238 -10.4665,16.8628 a 3.3454736,3.4407177 0 0 0 -0.016,0.04 c -2.3202,6.4571 -3.446,13.7286 -3.446,21.7655 0,10.6441 2.0701,20.1238 6.3011,28.265 a 3.3454736,3.4407177 0 0 0 0.017,0.023 c 4.2192,7.9789 10.2503,14.257 17.8935,18.6084 7.6731,4.3687 16.6582,6.5028 26.7651,6.5028 7.5716,0 14.518,-1.1634 20.7813,-3.5441 a 3.3454736,3.4407177 0 0 0 0.06,-0.023 c 6.2354,-2.5092 11.6699,-6.1094 16.1955,-10.7638 a 3.3454736,3.4407177 0 0 0 0.034,-0.037 c 4.5201,-4.7895 7.9503,-10.5177 10.2571,-17.0632 2.4464,-6.5809 3.6399,-13.9235 3.6401,-21.9688 0,-10.6436 -2.0681,-20.0716 -6.311,-28.0952 -4.2195,-7.979 -10.2499,-14.255 -17.8929,-18.6066 -7.6732,-4.3686 -16.6583,-6.505 -26.7651,-6.505 z m 0,25.4926 c 6.3155,0 10.865,2.1123 14.596,6.6269 a 3.3454736,3.4407177 0 0 0 0.028,0.031 c 3.5734,4.2156 5.6548,11.0945 5.6548,21.0565 0,6.5763 -0.9768,11.9099 -2.7613,16.0396 a 3.3454736,3.4407177 0 0 0 -0.017,0.04 c -1.6901,4.0552 -3.972,6.8937 -6.9271,8.8474 -2.9922,1.9784 -6.4162,2.9788 -10.5726,2.9788 -6.3084,0 -10.8534,-2.1061 -14.5821,-6.6097 -3.6365,-4.5198 -5.6961,-11.4821 -5.6961,-21.2965 0,-6.5899 0.9228,-11.8787 2.5831,-15.8705 1.8154,-4.1889 4.1521,-7.0058 7.0476,-8.8139 a 3.3454736,3.4407177 0 0 0 0.074,-0.048 c 2.9921,-1.9784 6.4161,-2.9811 10.5727,-2.9811 z" /><path
         style="-inkscape-font-specification:'Nunito, Bold';fill:#ffffff;fill-opacity:1;stroke-width:1.42671;stroke-linecap:round;stroke-linejoin:round;stroke-dashoffset:48.5383"
         d="m 2251.3412,1081.6881 v 0 c -4.4046,0 -8.3569,1.2928 -11.1279,4.143 -2.7959,2.8755 -4.0284,7.0013 -4.0284,11.6424 v 92.6709 c 0,12.5404 2.7972,22.6062 8.8286,29.6954 a 3.3454736,3.4407177 0 0 0 0.023,0.027 c 6.0637,6.9785 15.1339,10.3547 26.3064,10.3547 1.4984,0 2.9956,-0.07 4.4929,-0.2091 1.4061,-0.1306 2.749,-0.2641 4.0304,-0.3957 a 3.3454736,3.4407177 0 0 0 0.1008,-0.017 c 3.5211,-0.4726 6.6662,-1.993 8.5756,-4.7422 1.8173,-2.6168 2.5279,-5.9171 2.5279,-9.6414 0,-3.9558 -0.017,-6.5262 -1.3543,-9.0545 -0.6241,-1.2389 -1.723,-2.3663 -3.0253,-2.9302 -1.3286,-0.5756 -2.7086,-0.6244 -4.0114,-0.433 -0.8055,0.1192 -1.6097,0.2382 -2.4153,0.3566 h -2.6351 c -3.867,0 -6.2891,-1.0659 -8.1525,-3.1538 -1.6476,-1.981 -2.792,-5.5272 -2.7919,-11.0384 v -91.4953 c -10e-5,-4.6497 -1.3351,-8.8107 -4.2426,-11.6594 -2.7701,-2.8348 -6.71,-4.1258 -11.1035,-4.1258 z"
         id="path34" /><path
         id="path42"
         style="-inkscape-font-specification:'Nunito, Bold';fill:#ffffff;fill-opacity:1;stroke-width:1.42671;stroke-linecap:round;stroke-linejoin:round;stroke-dashoffset:48.5383"
         d="m 2144.3082,1081.514 c -2.986,0 -5.8226,0.6283 -8.3533,1.9296 -2.431,1.2502 -4.7363,3.0545 -6.9654,5.3473 l -49.3401,50.9194 0.3351,-21.1908 c -13.5493,31.4136 -19.0353,34.2724 -31.4187,46.9194 v 47.848 c 0,4.6411 1.2279,8.8049 3.8936,11.889 0.043,0.051 0.089,0.098 0.1363,0.1458 2.8781,2.9601 6.9613,4.3385 11.5099,4.3385 4.6562,0 8.7842,-1.3607 11.579,-4.4147 0.021,-0.023 0.041,-0.048 0.062,-0.071 2.6658,-3.0841 3.8941,-7.2479 3.8941,-11.8888 v -44.5931 l 50.8677,52.3164 c 2.4962,2.567 4.6963,4.5735 6.7073,6.0509 0.03,0.02 0.06,0.041 0.089,0.061 2.5899,1.7758 5.7717,2.5375 9.2844,2.5375 4.1136,0 7.8001,-1.1098 10.3665,-3.7493 2.5096,-2.5811 3.8062,-6.1523 3.6432,-9.8408 -0.1733,-3.9175 -2.1348,-7.5353 -5.2262,-10.5631 l -50.2749,-52.5541 47.6538,-48.5041 0.017,-0.017 c 2.5544,-2.6271 4.2019,-5.8128 4.5595,-9.2554 0.4734,-3.4128 -0.4825,-6.8878 -2.6569,-9.4914 -2.3495,-2.9655 -6.1349,-4.1708 -10.3627,-4.1708 z"
         sodipodi:nodetypes="csccccsscsscsccscssscccccccc" /></g></g></svg>
