<?xml version="1.0" encoding="UTF-8" standalone="no"?>
<!-- Created with Inkscape (http://www.inkscape.org/) -->

<svg
   width="280.50513"
   height="81.427078"
   viewBox="0 0 74.216979 21.544248"
   version="1.1"
   id="svg1"
   inkscape:version="1.4.2 (ebf0e940, 2025-05-08)"
   xml:space="preserve"
   sodipodi:docname="des-pool-04.svg"
   xmlns:inkscape="http://www.inkscape.org/namespaces/inkscape"
   xmlns:sodipodi="http://sodipodi.sourceforge.net/DTD/sodipodi-0.dtd"
   xmlns:xlink="http://www.w3.org/1999/xlink"
   xmlns="http://www.w3.org/2000/svg"
   xmlns:svg="http://www.w3.org/2000/svg"><sodipodi:namedview
     id="namedview1"
     pagecolor="#bfbfbf"
     bordercolor="#000000"
     borderopacity="0.25"
     inkscape:showpageshadow="true"
     inkscape:pageopacity="0.0"
     inkscape:pagecheckerboard="true"
     inkscape:deskcolor="#999999"
     inkscape:document-units="px"
     showborder="false"
     borderlayer="true"
     labelstyle="default"
     inkscape:antialias-rendering="true"
     inkscape:zoom="0.46585419"
     inkscape:cx="1546.6213"
     inkscape:cy="668.66416"
     inkscape:window-width="1696"
     inkscape:window-height="1026"
     inkscape:window-x="8"
     inkscape:window-y="51"
     inkscape:window-maximized="0"
     inkscape:current-layer="layer1"><inkscape:page
       x="0"
       y="0"
       width="74.21698"
       height="21.544249"
       id="page2"
       margin="0"
       bleed="0" /></sodipodi:namedview><defs
     id="defs1"><inkscape:path-effect
       effect="fillet_chamfer"
       id="path-effect20"
       is_visible="true"
       lpeversion="1"
       nodesatellites_param="F,0,0,1,0,19.048747,0,1 @ F,0,0,1,0,0,0,1 @ F,0,0,1,0,0,0,1 @ F,0,0,1,0,11.108614,0,1 @ F,0,0,1,0,0,0,1 @ F,0,0,1,0,0,0,1"
       radius="0"
       unit="px"
       method="auto"
       mode="F"
       chamfer_steps="1"
       flexible="false"
       use_knot_distance="true"
       apply_no_radius="true"
       apply_with_radius="true"
       only_selected="false"
       hide_knots="false" /><linearGradient
       id="linearGradient43"
       inkscape:collect="always"><stop
         style="stop-color:#fcffcc;stop-opacity:1;"
         offset="0.09864602"
         id="stop44" /><stop
         style="stop-color:#ffff01;stop-opacity:1;"
         offset="0.7524178"
         id="stop43" /></linearGradient><radialGradient
       inkscape:collect="always"
       xlink:href="#linearGradient43"
       id="radialGradient20"
       gradientUnits="userSpaceOnUse"
       gradientTransform="matrix(1.5249014,-0.24630368,0.32894355,1.6974921,-324.58872,48.424235)"
       cx="542.66504"
       cy="120.82032"
       fx="542.66504"
       fy="120.82032"
       r="38.125828" /></defs><g
     inkscape:label="Layer 1"
     inkscape:groupmode="layer"
     id="layer1"
     transform="translate(-25.724385,-39.599437)"><path
       id="path1"
       style="-inkscape-font-specification:'Nunito, Bold';fill:#000000;fill-opacity:1;stroke-width:0.107;stroke-linecap:round;stroke-linejoin:round;stroke-dashoffset:48.5383"
       d="m 39.727348,50.664401 v 0 c -0.491383,0 -0.950687,0.09316 -1.369857,0.281282 -0.408254,0.177818 -0.764644,0.436873 -1.061117,0.771858 a 0.24820533,0.25415178 0 0 0 -0.0028,0.0033 c -0.286364,0.335113 -0.509049,0.736144 -0.668885,1.196481 a 0.24820533,0.25415178 0 0 0 -0.0012,0.0033 c -0.151543,0.455118 -0.225301,0.960978 -0.225301,1.514736 0,0.735639 0.133267,1.39381 0.406828,1.964365 0.27243,0.568293 0.664052,1.023216 1.164377,1.347337 a 0.24820533,0.25415178 0 0 0 0.0031,0.0021 c 0.504004,0.315963 1.095384,0.471403 1.754844,0.471403 0.606722,0 1.162583,-0.158087 1.645809,-0.473914 a 0.24820533,0.25415178 0 0 0 0.0013,-0.0012 c 0.140686,-0.09303 0.265208,-0.198823 0.380425,-0.311477 v 0.213781 c 0,0.572478 -0.142269,0.953574 -0.402508,1.204374 a 0.24820533,0.25415178 0 0 0 -0.0054,0.0054 c -0.251554,0.257585 -0.64733,0.403255 -1.237872,0.403255 -0.243155,0 -0.551013,-0.03188 -0.918215,-0.0977 a 0.24820533,0.25415178 0 0 0 -0.0053,-0.0012 c -0.33629,-0.05297 -0.703333,-0.178361 -1.099749,-0.381323 l 0.0058,0.0033 c -0.184785,-0.100908 -0.398279,-0.135462 -0.59472,-0.07799 -0.174696,0.0511 -0.331864,0.152093 -0.454794,0.290563 a 0.24820533,0.25415178 0 0 0 -0.0083,0.0099 c -0.108923,0.136306 -0.184038,0.29679 -0.220175,0.469444 a 0.24820533,0.25415178 0 0 0 -0.0033,0.01969 c -0.02448,0.187974 0.0013,0.378744 0.07438,0.553418 a 0.24820533,0.25415178 0 0 0 0.0061,0.01354 c 0.09554,0.195672 0.263663,0.345215 0.473817,0.458464 a 0.24820533,0.25415178 0 0 0 0.0025,0.0015 c 0.408509,0.214263 0.859572,0.371237 1.350677,0.471803 a 0.24820533,0.25415178 0 0 0 0.0012,0 c 0.496767,0.09974 1.007625,0.149493 1.53176,0.149493 1.172045,0 2.107133,-0.303872 2.757712,-0.938322 0.652954,-0.636742 0.967402,-1.581532 0.967402,-2.774492 v -5.57219 c 0,-0.342811 -0.0914,-0.64748 -0.298812,-0.859882 -0.205592,-0.210524 -0.498938,-0.305988 -0.825735,-0.305988 -0.318896,0 -0.608615,0.09695 -0.820081,0.300741 a 0.24820533,0.25415178 0 0 0 -0.0054,0.0054 c -0.125637,0.128653 -0.196236,0.297988 -0.24222,0.482358 C 41.665611,51.3626 41.53778,51.250986 41.390972,51.154722 40.915104,50.82699 40.352443,50.663904 39.727785,50.663904 Z m 0.479924,1.884025 c 0.489453,0 0.835853,0.157763 1.111104,0.489356 a 0.24820533,0.25415178 0 0 0 0.0021,0.0023 c 0.272709,0.320306 0.419442,0.772123 0.419442,1.39611 0,0.414338 -0.07,0.761484 -0.202404,1.049552 a 0.24820533,0.25415178 0 0 0 -0.0015,0.0029 c -0.12428,0.280007 -0.293353,0.482947 -0.516083,0.629566 -0.219752,0.144645 -0.483362,0.220122 -0.812662,0.220122 -0.489439,0 -0.835854,-0.157717 -1.111111,-0.48931 -0.274745,-0.330967 -0.421516,-0.788875 -0.421516,-1.412848 0,-0.414978 0.06629,-0.757933 0.188954,-1.035392 0.133478,-0.280611 0.307979,-0.485533 0.530966,-0.632326 0.219729,-0.144629 0.483421,-0.220107 0.812707,-0.220107 z"
       inkscape:export-filename="/Users/kolo/Documents/img/work/assets/logo-black.svg"
       inkscape:export-xdpi="96"
       inkscape:export-ydpi="96" /><path
       style="-inkscape-font-specification:'Nunito, Bold';fill:#000000;fill-opacity:1;stroke-width:0.107;stroke-linecap:round;stroke-linejoin:round;stroke-dashoffset:48.5383"
       d="m 35.468592,51.978316 c -0.33068,0 -0.63035,0.112496 -0.832264,0.342819 -0.204289,0.223643 -0.292229,0.537087 -0.292229,0.895407 v 4.041612 c 0,0.351082 0.08967,0.66311 0.288942,0.892663 0.201936,0.2326 0.503243,0.345714 0.835551,0.345714 0.34012,0 0.64601,-0.111154 0.849659,-0.345714 0.199267,-0.229553 0.288934,-0.541581 0.288934,-0.892663 v -4.041612 c 0,-0.35881 -0.09501,-0.675007 -0.307896,-0.896908 -0.201907,-0.229169 -0.500823,-0.341318 -0.830697,-0.341318 z"
       id="path2"
       sodipodi:nodetypes="scssssssscs"
       inkscape:export-filename="/Users/kolo/Documents/img/work/Night-Kolo-logo-01.png"
       inkscape:export-xdpi="96"
       inkscape:export-ydpi="96" /><path
       style="-inkscape-font-specification:'Nunito, Bold';fill:#000000;fill-opacity:1;stroke-width:0.107;stroke-linecap:round;stroke-linejoin:round;stroke-dashoffset:48.5383"
       d="m 50.516111,48.581025 h -6.8e-5 c -0.326782,0 -0.621115,0.09501 -0.834338,0.300515 -0.0018,0.0018 -0.0036,0.0036 -0.0054,0.0056 -0.207418,0.212401 -0.298781,0.51701 -0.298781,0.859829 v 1.062859 H 48.9473 c -0.267492,0 -0.512795,0.07221 -0.691209,0.240877 -0.180577,0.170656 -0.263707,0.423612 -0.263707,0.693411 0,0.262305 0.08451,0.510157 0.256492,0.686256 0.0023,0.0023 0.0047,0.0047 0.0072,0.0069 0.178429,0.168643 0.423777,0.241037 0.691277,0.241037 h 0.430126 v 2.828446 c 0,0.636066 0.103124,1.186649 0.321957,1.645492 0,0.0011 0.0011,0.0014 0.0012,0.0021 0.220409,0.451401 0.565798,0.804496 1.013401,1.038966 0.0011,0 0.0014,0.0011 0.0021,0.0012 0.998495,0.511198 1.986954,0.336735 2.501431,0.174682 0.0033,-0.0011 0.0064,-0.002 0.0096,-0.0033 0.212077,-0.07665 0.388855,-0.237764 0.471502,-0.447512 0.07959,-0.188569 0.117932,-0.396544 0.117932,-0.617036 0,-0.273961 -0.01697,-0.491926 -0.182334,-0.66556 -0.119644,-0.133682 -0.30571,-0.21066 -0.482073,-0.195603 -0.0014,-1.5e-5 -0.0028,-1.5e-5 -0.0041,0 -0.1081,0.0111 -0.226078,0.03229 -0.356269,0.06307 -0.465063,0.109872 -1.151364,0.164714 -1.151364,-1.098189 v -2.727124 h 1.250131 c 0.267499,0 0.512811,-0.07245 0.691224,-0.241097 0.0025,-0.0022 0.0048,-0.0046 0.0072,-0.0069 0.171982,-0.176092 0.256318,-0.423891 0.256318,-0.686196 0,-0.269799 -0.08298,-0.522755 -0.263556,-0.693418 -0.178399,-0.168665 -0.42371,-0.240878 -0.691209,-0.240878 h -1.250132 v -1.062858 c 0,-0.342811 -0.0912,-0.647481 -0.298622,-0.859867 -0.205593,-0.210524 -0.498863,-0.306019 -0.82566,-0.306019 z"
       id="path3"
       sodipodi:nodetypes="csscscsssscscsccscsccscccsscsscssscsscc" /><path
       style="-inkscape-font-specification:'Nunito, Bold';fill:#000000;fill-opacity:1;stroke-width:0.107;stroke-linecap:round;stroke-linejoin:round;stroke-dashoffset:48.5383"
       d="m 42.838087,47.568281 c -0.326782,0 -0.619886,0.09549 -0.825479,0.306004 -0.207441,0.212401 -0.298849,0.517003 -0.298849,0.859821 v 8.5966 c 0,0.342812 0.09113,0.648559 0.293488,0.868711 a 0.24820533,0.25415178 0 0 0 0.0054,0.0056 c 0.205594,0.210531 0.498705,0.30601 0.825494,0.30601 0.338823,0 0.638245,-0.09279 0.844683,-0.307526 0.20643,-0.214739 0.294083,-0.52231 0.294083,-0.872752 v -3.169516 c 0,-0.502248 0.130583,-0.866192 0.384535,-1.142596 0.263677,-0.286273 0.597501,-0.42659 1.062949,-0.42659 0.376226,0 0.596408,0.100087 0.739824,0.281893 a 0.24820533,0.25415178 0 0 0 0.0034,0.0045 c 0.149522,0.180947 0.252345,0.519762 0.252345,1.037014 v 3.415551 c 0,0.342811 0.09115,0.648558 0.293488,0.86871 a 0.24820533,0.25415178 0 0 0 0.01074,0.01099 c 0.213239,0.205517 0.507594,0.300522 0.834406,0.300522 0.326782,0 0.619871,-0.09549 0.825472,-0.306019 a 0.24820533,0.25415178 0 0 0 0.0054,-0.0056 c 0.202366,-0.220153 0.293473,-0.5259 0.293473,-0.868711 v -3.502391 c 0,-0.678889 -0.0911,-1.251789 -0.288067,-1.71974 -0.196448,-0.476207 -0.50368,-0.849719 -0.909574,-1.09034 -0.406256,-0.240833 -0.908662,-0.352507 -1.495412,-0.352507 -0.594607,0 -1.142008,0.146808 -1.623734,0.440303 -0.141289,0.08495 -0.268774,0.186376 -0.388884,0.296263 v -2.66815 c 0,-0.343648 -0.09938,-0.650888 -0.315353,-0.861322 C 43.456479,47.663896 43.164341,47.5685 42.838561,47.5685 Z"
       id="path4" /><path
       style="-inkscape-font-specification:'Nunito, Bold';fill:#000000;fill-opacity:1;stroke-width:0.107;stroke-linecap:round;stroke-linejoin:round;stroke-dashoffset:48.5383"
       d="m 32.694407,47.568063 c -0.318896,0 -0.607672,0.09736 -0.811433,0.306003 -0.002,0.0019 -0.0038,0.0039 -0.0057,0.0059 -0.192497,0.21026 -0.279216,0.501358 -0.279216,0.824966 v 5.267223 l -3.761635,-5.769676 c -0.0012,-0.0012 -0.0019,-0.0023 -0.0026,-0.0036 -0.156142,-0.199848 -0.295614,-0.34557 -0.442173,-0.447903 -0.168062,-0.136276 -0.627848,-0.182952 -0.627848,-0.182952 v 0 c 0,0 -0.565225,0.113966 -0.760195,0.326088 -0.196041,0.214113 -0.279223,0.514033 -0.279223,0.854107 v 8.610766 c 0,0.331804 0.08495,0.627381 0.279223,0.839563 0.002,0.002 0.0036,0.004 0.0057,0.0059 0.203761,0.208646 0.492544,0.305996 0.81144,0.305996 0.318896,0 0.607077,-0.09795 0.802997,-0.311938 0.194254,-0.21219 0.279216,-0.507684 0.279216,-0.839503 v -4.881798 l 3.761204,5.384041 c 0.0012,0.0013 0.002,0.0026 0.0031,0.0041 0.159889,0.204659 0.308333,0.360672 0.462387,0.469889 0.0023,0.0016 0.0046,0.0033 0.0071,0.0046 0.183902,0.121076 0.408058,0.170656 0.657153,0.170656 0.281282,0 0.545653,-0.10973 0.72384,-0.318263 0.179168,-0.20965 0.259244,-0.491738 0.259244,-0.804248 v -8.6833 c 0,-0.323608 -0.08658,-0.614714 -0.279072,-0.824967 -0.195921,-0.213977 -0.48404,-0.311929 -0.802937,-0.311929 z"
       id="path5"
       sodipodi:nodetypes="cscsccccsscssscsssccsscssssscc" /><path
       style="-inkscape-font-specification:'Nunito, Bold';fill:#000000;fill-opacity:1;stroke-width:0.100158;stroke-linecap:round;stroke-linejoin:round;stroke-dashoffset:48.5383"
       d="m 35.4686,50.521393 c -0.324159,0 -0.612007,-0.09109 -0.821875,-0.306449 l -0.0041,-0.0043 c -0.207396,-0.216857 -0.307821,-1.074605 -0.307821,-1.433641 0,-0.351021 0.10096,-0.669903 0.303078,-0.893666 0.0028,-0.0033 0.0059,-0.0061 0.0089,-0.0091 0.212802,-0.211406 0.497762,-0.306463 0.821929,-0.306463 0.331441,0 0.618317,0.09346 0.826052,0.310647 0.0017,0.0016 0.003,0.0033 0.0045,0.0048 0.202117,0.223763 0.303312,0.542651 0.303312,0.893658 0,0.359044 -0.10041,1.2168 -0.307813,1.433649 -0.207712,0.217189 -0.494663,0.310633 -0.826098,0.310633 z"
       id="path6"
       sodipodi:nodetypes="cscsccsscsscc" /><path
       id="path7"
       style="display:inline;fill:#000000;fill-opacity:1;stroke:none;stroke-width:0.366731;stroke-linecap:round;stroke-linejoin:round;stroke-opacity:1;paint-order:stroke fill markers"
       d="m 59.062913,47.484186 c -0.895091,2.164516 -1.02164,2.350672 -3.192972,5.041396 0.668651,2.955773 2.640119,5.541721 6.164593,6.148028 2.672673,0.459748 5.593828,-0.64178 7.691717,-3.731348 -0.841568,-2.347264 -1.099825,-3.105575 -1.216509,-4.666331 -1.142762,0.703257 -3.352458,1.573317 -4.652093,1.345264 -2.208501,-0.394411 -4.022342,-1.932941 -4.794736,-4.137009 z"
       sodipodi:nodetypes="ccscccc"
       inkscape:export-filename="kologen-head.svg"
       inkscape:export-xdpi="96"
       inkscape:export-ydpi="96" /><path
       id="path8"
       style="display:inline;fill:#000000;fill-opacity:1;stroke:none;stroke-width:2.69201;stroke-linecap:round;stroke-linejoin:round;stroke-dasharray:none;stroke-opacity:1;paint-order:stroke fill markers"
       d="m 70.111599,44.391843 c -0.254802,0.03832 2.400233,0.74823 -0.367607,4.821674 0.01913,1.525367 0.289342,2.864659 1.050486,4.932526 3.58267,-0.291188 6.007606,-3.610144 5.883843,-5.506565 -0.100576,-1.540905 -2.561955,-4.849758 -6.566722,-4.247635 z"
       sodipodi:nodetypes="scccs" /><path
       id="path12"
       style="display:inline;fill:url(#radialGradient20);fill-opacity:1;stroke:none;stroke-width:19.5782;stroke-linecap:round;stroke-linejoin:round;stroke-dasharray:none;stroke-opacity:1;paint-order:stroke fill markers"
       d="m 544.35857,52.747009 c -12.64997,5.898923 -22.09679,16.706547 -22.13179,31.032683 -1.5331,22.868288 16.31268,42.157338 40.29353,41.217968 18.3159,-0.71747 31.55847,-14.29804 35.5452,-31.519879 1.38066,-5.964198 -1.85751,-7.182259 -6.51845,-3.380943 -3.65462,2.980599 -8.70704,5.877417 -15.38868,6.732875 -17.77086,1.086104 -27.66479,-9.72751 -26.63812,-27.073042 0.008,-2.606221 0.46821,-5.028866 1.28921,-7.290102 3.54142,-9.754037 3.03568,-14.143336 -6.4509,-9.71956 z"
       sodipodi:nodetypes="ccscccc"
       inkscape:path-effect="#path-effect20"
       inkscape:original-d="m 562.68203,47.903613 c -20.65102,1.78578 -40.40461,15.148057 -40.45525,35.876079 -1.5331,22.868288 16.31268,42.157338 40.29353,41.217968 22.08501,-0.86511 36.79383,-20.43207 36.79409,-42.534015 -0.44984,-1.537083 -7.09762,12.310092 -23.15602,14.366068 -17.77086,1.086104 -27.66479,-9.72751 -26.63812,-27.073042 0.029,-9.277168 5.78421,-16.228268 13.16177,-21.853058 z"
       transform="matrix(0.12938581,0.02281421,-0.02498892,0.14171925,-5.4589648,19.829129)" /><path
       id="path13"
       style="display:inline;fill:#000000;fill-opacity:1;stroke:none;stroke-width:2.69201;stroke-linecap:round;stroke-linejoin:round;stroke-dasharray:none;stroke-opacity:1;paint-order:stroke fill markers"
       d="m 51.496224,44.204405 c -0.7649,1.739713 0.378616,5.687904 3.645648,7.186867 2.804245,-3.317441 3.174681,-5.597001 3.943803,-8.969562 -3.179808,-1.697112 -6.824468,0.04291 -7.589451,1.782711 z"
       sodipodi:nodetypes="sccss" /><path
       id="path14"
       style="-inkscape-font-specification:'Nunito, Bold';fill:#000000;fill-opacity:1;stroke-width:0.107566;stroke-linecap:round;stroke-linejoin:round;stroke-dashoffset:48.5383"
       d="m 96.098261,50.50265 c -0.571457,0 -1.096008,0.09323 -1.568813,0.283159 -0.471823,0.179695 -0.883217,0.452193 -1.22456,0.813476 -0.341551,0.351595 -0.605163,0.778086 -0.788687,1.27088 a 0.25223027,0.25941115 0 0 0 -0.0015,0.003 c -0.174924,0.486845 -0.259795,1.035076 -0.259795,1.641007 -1.5e-5,0.802506 0.156043,1.517231 0.475054,2.131032 a 0.25223027,0.25941115 0 0 0 0.0015,0.0016 c 0.318106,0.60155 0.772804,1.074907 1.349055,1.402963 0.578506,0.329384 1.255954,0.490291 2.017959,0.490291 0.570862,0 1.094553,-0.08772 1.566793,-0.267206 a 0.25223027,0.25941115 0 0 0 0.0046,-0.0013 c 0.470092,-0.18918 0.879792,-0.460616 1.220997,-0.811524 a 0.25223027,0.25941115 0 0 0 0.0025,-0.0028 c 0.340767,-0.361095 0.599417,-0.792985 0.773322,-1.286472 0.18445,-0.496155 0.274665,-1.049762 0.274675,-1.656326 -1e-5,-0.802469 -0.156159,-1.513281 -0.476041,-2.118231 -0.318157,-0.601573 -0.77259,-1.074741 -1.348862,-1.40282 -0.5785,-0.329376 -1.256153,-0.490441 -2.018182,-0.490456 z m 0,1.922016 c 0.476169,-1.5e-5 0.819359,0.159241 1.10067,0.499632 a 0.25223027,0.25941115 0 0 0 0.002,0.0023 c 0.269423,0.317841 0.426331,0.836465 0.426478,1.587507 0,0.495809 -0.07345,0.897941 -0.208002,1.209297 a 0.25223027,0.25941115 0 0 0 -0.0015,0.003 c -0.127416,0.305747 -0.29923,0.519747 -0.522017,0.667045 -0.225611,0.149153 -0.484041,0.224592 -0.797394,0.224638 -0.475319,7e-6 -0.817745,-0.158811 -1.098746,-0.497936 -0.274406,-0.340775 -0.429914,-0.865777 -0.430316,-1.605932 0,-0.496443 0.06936,-0.894827 0.194338,-1.195697 0.136923,-0.316362 0.313297,-0.528929 0.531824,-0.665364 a 0.25223027,0.25941115 0 0 0 0.0053,-0.0036 c 0.225611,-0.14916 0.483833,-0.224751 0.797191,-0.224751 z" /><path
       id="path15"
       style="-inkscape-font-specification:'Nunito, Bold';fill:#000000;fill-opacity:1;stroke-width:0.107566;stroke-linecap:round;stroke-linejoin:round;stroke-dashoffset:48.5383"
       d="m 85.712911,50.502159 c -0.571309,0 -1.095932,0.09314 -1.56865,0.282934 -0.471655,0.179612 -0.882952,0.452155 -1.224285,0.813219 -0.341739,0.351701 -0.605539,0.778358 -0.789119,1.271363 a 0.25223027,0.25941115 0 0 0 -0.001,0.003 c -0.174928,0.48683 -0.259805,1.035061 -0.259805,1.640999 0,0.802507 0.156074,1.517223 0.475065,2.131025 a 0.25223027,0.25941115 0 0 0 0.0015,0.0017 c 0.318105,0.601565 0.772818,1.074899 1.34907,1.402971 0.578511,0.329375 1.255939,0.490275 2.017943,0.490275 0.570857,0 1.094579,-0.08771 1.566793,-0.267206 a 0.25223027,0.25941115 0 0 0 0.0046,-0.0017 c 0.470118,-0.18918 0.879848,-0.460615 1.221053,-0.811531 a 0.25223027,0.25941115 0 0 0 0.0025,-0.0028 c 0.340788,-0.361102 0.599407,-0.792977 0.773328,-1.286472 0.184445,-0.496163 0.274425,-1.049755 0.274441,-1.656326 0,-0.802469 -0.155921,-1.513288 -0.475813,-2.118223 -0.318126,-0.601573 -0.772788,-1.074749 -1.349024,-1.402835 -0.578521,-0.329369 -1.255944,-0.490441 -2.017944,-0.490441 z m 0,1.922002 c 0.476154,0 0.819161,0.159256 1.100457,0.499632 a 0.25223027,0.25941115 0 0 0 0.002,0.0023 c 0.269418,0.317833 0.426342,0.836464 0.426342,1.587544 0,0.495817 -0.07364,0.897941 -0.208186,1.209297 a 0.25223027,0.25941115 0 0 0 -0.0015,0.003 c -0.127421,0.305739 -0.299464,0.519747 -0.522266,0.667045 -0.225596,0.14916 -0.483746,0.224585 -0.797114,0.224585 -0.475619,0 -0.818285,-0.158788 -1.099408,-0.498335 -0.274177,-0.340768 -0.429456,-0.865687 -0.429456,-1.605639 0,-0.496842 0.06957,-0.895588 0.194751,-1.196548 0.136872,-0.31582 0.313047,-0.528199 0.53135,-0.664519 a 0.25223027,0.25941115 0 0 0 0.0056,-0.0036 c 0.22559,-0.14916 0.483741,-0.224758 0.797124,-0.224758 z" /><path
       style="-inkscape-font-specification:'Nunito, Bold';fill:#000000;fill-opacity:1;stroke-width:0.107566;stroke-linecap:round;stroke-linejoin:round;stroke-dashoffset:48.5383"
       d="m 90.401672,47.34071 v 0 c -0.332081,0 -0.630064,0.09747 -0.838983,0.31236 -0.210796,0.216797 -0.303719,0.527859 -0.303719,0.877773 v 6.986875 c 0,0.945477 0.210894,1.704382 0.665627,2.238869 a 0.25223027,0.25941115 0 0 0 0.0015,0.002 c 0.457171,0.52614 1.141011,0.780687 1.983358,0.780687 0.112973,0 0.22585,-0.0053 0.338742,-0.01577 0.106011,-0.0098 0.207259,-0.01991 0.303866,-0.02983 a 0.25223027,0.25941115 0 0 0 0.0076,-0.0013 c 0.265469,-0.03563 0.502591,-0.150261 0.646552,-0.357535 0.137015,-0.197292 0.190588,-0.446117 0.190588,-0.726909 0,-0.298245 -0.0015,-0.492039 -0.102108,-0.682659 -0.04707,-0.09341 -0.129905,-0.178406 -0.22809,-0.220921 -0.100169,-0.0434 -0.204211,-0.04707 -0.302436,-0.03265 -0.06073,0.009 -0.121365,0.01796 -0.182099,0.02689 h -0.198674 c -0.291551,0 -0.474164,-0.08036 -0.614654,-0.237779 -0.12422,-0.149356 -0.210501,-0.41672 -0.210491,-0.832234 V 48.53039 c -1e-5,-0.350561 -0.100663,-0.664278 -0.319872,-0.879054 -0.208847,-0.213728 -0.505894,-0.311063 -0.83714,-0.311063 z"
       id="path17" /><path
       id="path18"
       style="-inkscape-font-specification:'Nunito, Bold';fill:#000000;fill-opacity:1;stroke-width:0.107566;stroke-linecap:round;stroke-linejoin:round;stroke-dashoffset:48.5383"
       d="m 82.331974,47.327584 c -0.225127,0 -0.438993,0.04737 -0.629794,0.145482 -0.183285,0.09426 -0.357088,0.230292 -0.525152,0.403156 l -3.719969,3.839043 0.02524,-1.59767 c -1.021545,2.368412 -1.435158,2.58395 -2.368798,3.537464 v 3.607476 c 0,0.349913 0.09258,0.66384 0.293556,0.896365 0.0031,0.0039 0.0067,0.0074 0.01028,0.01099 0.21699,0.223176 0.524841,0.327099 0.867782,0.327099 0.351052,0 0.662278,-0.102589 0.872993,-0.332844 0.0015,-0.0017 0.0031,-0.0036 0.0046,-0.0054 0.20099,-0.232524 0.293596,-0.546451 0.293596,-0.89635 V 53.90037 l 3.835142,3.944368 c 0.188201,0.193537 0.354075,0.344817 0.505696,0.456204 0.002,0.0015 0.0046,0.0031 0.0067,0.0046 0.195265,0.133886 0.435156,0.191314 0.699994,0.191314 0.310141,0 0.588083,-0.08367 0.781577,-0.282676 0.189208,-0.194601 0.286965,-0.46385 0.27468,-0.741942 -0.01308,-0.295358 -0.160954,-0.56812 -0.39403,-0.7964 l -3.790449,-3.962289 3.592833,-3.656942 0.0015,-0.0013 c 0.192587,-0.198069 0.316798,-0.438254 0.34376,-0.697806 0.03567,-0.257307 -0.03639,-0.519303 -0.200313,-0.7156 -0.177142,-0.223582 -0.46254,-0.314455 -0.781292,-0.314455 z"
       sodipodi:nodetypes="csccccsscsscsccscssscccccccc" /></g></svg>
