<?xml version="1.0" encoding="UTF-8" standalone="no"?>
<!-- Created with Inkscape (http://www.inkscape.org/) -->

<svg
   width="63.741886"
   height="63.74194"
   viewBox="0 0 16.86504 16.865055"
   version="1.1"
   id="svg1"
   xml:space="preserve"
   xmlns="http://www.w3.org/2000/svg"
   xmlns:svg="http://www.w3.org/2000/svg"><defs
     id="defs1" /><g
     id="layer1"
     transform="translate(-98.459147,-175.71747)"><g
       id="layer5"
       style="display:inline;opacity:1;fill:#ffffff;fill-opacity:1"
       transform="translate(-693.06558,377.99421)"><path
         id="path44-7"
         style="display:inline;opacity:1;fill:#ffffff;fill-opacity:1;stroke:none;stroke-width:3.49337;stroke-linecap:round;stroke-linejoin:round;stroke-opacity:1;paint-order:stroke fill markers"
         d="m 644.41674,-239.8936 c -4.91092,21.36627 -5.80746,23.28419 -22.03844,51.56223 11.3809,26.1092 34.59987,46.70262 69.33478,46.56305 26.34009,-0.10584 52.42385,-14.97914 67.27962,-46.80748 -12.00862,-20.23023 -15.75781,-26.78801 -19.50631,-40.95822 -9.74472,8.32408 -29.41346,19.91361 -42.22946,19.92384 -21.78994,-0.046 -41.73457,-11.25837 -52.84019,-30.28342 z" /><path
         id="path45-0"
         style="display:inline;opacity:1;fill:#ffffff;fill-opacity:1;stroke:none;stroke-width:25.6433;stroke-linecap:round;stroke-linejoin:round;stroke-dasharray:none;stroke-opacity:1;paint-order:stroke fill markers"
         d="m 744.88425,-286.26795 c -2.3726,0.76581 24.22076,2.99005 4.61604,44.95713 2.75576,14.00285 7.59905,25.88649 18.36731,43.67666 33.778,-8.49097 51.3753,-42.96037 46.993,-60.20718 -3.56102,-14.01377 -32.68537,-40.46311 -69.97635,-28.42661 z" /><path
         id="path47-3-7"
         style="display:inline;opacity:1;fill:#ffffff;fill-opacity:1;stroke:none;stroke-width:19.5782;stroke-linecap:round;stroke-linejoin:round;stroke-dasharray:none;stroke-opacity:1;paint-order:stroke fill markers"
         d="m 544.35857,52.747009 c -12.64997,5.898923 -22.09679,16.706547 -22.13179,31.032683 -1.5331,22.868288 16.31268,42.157338 40.29353,41.217968 18.3159,-0.71747 31.55847,-14.29804 35.5452,-31.519879 1.38066,-5.964198 -1.85751,-7.182259 -6.51845,-3.380943 -3.65462,2.980599 -8.70704,5.877417 -15.38868,6.732875 -17.77086,1.086104 -27.66479,-9.72751 -26.63812,-27.073042 0.008,-2.606221 0.46821,-5.028866 1.28921,-7.290102 3.54142,-9.754037 3.03568,-14.143336 -6.4509,-9.71956 z"
         transform="matrix(1.2760819,0,0,1.3443992,-19.39213,-389.65725)" /><path
         id="path430"
         style="display:inline;opacity:1;fill:#ffffff;fill-opacity:1;stroke:none;stroke-width:25.6433;stroke-linecap:round;stroke-linejoin:round;stroke-dasharray:none;stroke-opacity:1;paint-order:stroke fill markers"
         d="m 566.50807,-257.79345 c -4.3823,17.24681 13.2148,51.71616 46.9928,60.20713 21.228,-35.07062 20.9266,-56.64425 22.5952,-88.92052 -33.2779,-10.45557 -65.2052,11.46572 -69.588,28.71344 z" /></g><path
       id="path112"
       style="fill:#ffffff;fill-opacity:1;stroke-width:0.540544;stroke-linecap:round;stroke-linejoin:round;stroke-dashoffset:48.5383;paint-order:stroke fill markers"
       d="m 37.656616,-33.112707 c -4.832085,9.6e-5 -8.749241,3.917252 -8.749337,8.749337 -1.88e-4,4.832287 3.91705,8.749757 8.749337,8.749853 0.961445,-0.0031 1.907817,-0.164437 2.803536,-0.470791 1.730997,-0.592035 1.314624,-1.627889 -0.352375,-2.376428 -2.451268,-1.100702 -4.439164,-3.331235 -4.43967,-5.902634 7.04e-4,-2.571219 1.988561,-4.801529 4.439702,-5.902143 1.666989,-0.748513 2.083345,-1.784375 0.352349,-2.376421 -0.895721,-0.306359 -1.842094,-0.467705 -2.803542,-0.470773 z"
       transform="rotate(-45,323.74763,-4.2216795)" /></g></svg>
