<?xml version="1.0" encoding="UTF-8" standalone="no"?>
<!-- Created with Inkscape (http://www.inkscape.org/) -->

<svg
   width="41.033707"
   height="39.419785"
   viewBox="0 0 10.856835 10.429818"
   version="1.1"
   id="svg1"
   inkscape:version="1.4.2 (ebf0e940, 2025-05-08)"
   xml:space="preserve"
   sodipodi:docname="des-pool-04.svg"
   xmlns:inkscape="http://www.inkscape.org/namespaces/inkscape"
   xmlns:sodipodi="http://sodipodi.sourceforge.net/DTD/sodipodi-0.dtd"
   xmlns="http://www.w3.org/2000/svg"
   xmlns:svg="http://www.w3.org/2000/svg"><sodipodi:namedview
     id="namedview1"
     pagecolor="#bfbfbf"
     bordercolor="#000000"
     borderopacity="0.25"
     inkscape:showpageshadow="true"
     inkscape:pageopacity="0.0"
     inkscape:pagecheckerboard="true"
     inkscape:deskcolor="#999999"
     inkscape:document-units="px"
     showborder="false"
     borderlayer="true"
     labelstyle="default"
     inkscape:antialias-rendering="true"
     inkscape:zoom="0.46585419"
     inkscape:cx="1546.6213"
     inkscape:cy="668.66416"
     inkscape:window-width="1696"
     inkscape:window-height="1026"
     inkscape:window-x="8"
     inkscape:window-y="51"
     inkscape:window-maximized="0"
     inkscape:current-layer="layer1"><inkscape:page
       x="1.7092325e-15"
       y="0"
       width="10.856835"
       height="10.429818"
       id="page2"
       margin="0"
       bleed="0" /></sodipodi:namedview><defs
     id="defs1" /><g
     inkscape:label="Layer 1"
     inkscape:groupmode="layer"
     id="layer1"
     transform="translate(-44.902274,45.940902)"><path
       id="path111"
       style="stroke-width:0.319738;stroke-linecap:round;stroke-linejoin:round;stroke-dashoffset:48.5383;paint-order:stroke fill markers"
       inkscape:transform-center-y="-0.52967547"
       d="m 50.328491,-45.940817 c -0.792327,0.0079 -1.567924,1.194493 -2.119224,2.705808 -1.633394,0.06265 -3.028716,0.444779 -3.26855,1.208627 -0.237365,0.75598 0.651717,1.85997 1.918702,2.851309 -0.445165,1.57281 -0.513268,3.017773 0.139081,3.48191 0.645631,0.459357 1.970587,-0.04467 3.304927,-0.943303 1.358267,0.9094 2.711742,1.4203 3.354749,0.943303 0.636386,-0.472081 0.566117,-1.887804 0.123799,-3.434532 1.284618,-1.010767 2.188936,-2.139749 1.933986,-2.898687 -0.252322,-0.751118 -1.620495,-1.121988 -3.228186,-1.179327 -0.564329,-1.534091 -1.358691,-2.743101 -2.159268,-2.735152 z" /></g></svg>
