<?xml version="1.0" encoding="UTF-8" standalone="no"?>
<!-- Created with Inkscape (http://www.inkscape.org/) -->

<svg
   width="41.03363"
   height="39.419739"
   viewBox="0 0 10.856814 10.429806"
   version="1.1"
   id="svg1"
   xml:space="preserve"
   xmlns="http://www.w3.org/2000/svg"
   xmlns:svg="http://www.w3.org/2000/svg"><defs
     id="defs1" /><g
     id="layer1"
     transform="translate(-147.62055,-182.14604)"><path
       id="path111"
       style="fill:#ffffff;fill-opacity:1;stroke-width:0.319738;stroke-linecap:round;stroke-linejoin:round;stroke-dashoffset:48.5383;paint-order:stroke fill markers"
       d="m 153.04676,182.14611 c -0.79233,0.008 -1.56792,1.19449 -2.11922,2.70581 -1.6334,0.0626 -3.02872,0.44478 -3.26855,1.20863 -0.23737,0.75598 0.65171,1.85997 1.9187,2.8513 -0.44517,1.57281 -0.51327,3.01778 0.13908,3.48192 0.64563,0.45935 1.97059,-0.0447 3.30493,-0.94331 1.35826,0.9094 2.71174,1.4203 3.35475,0.94331 0.63638,-0.47209 0.56611,-1.88781 0.12379,-3.43454 1.28462,-1.01076 2.18894,-2.13975 1.93399,-2.89868 -0.25232,-0.75112 -1.62049,-1.12199 -3.22819,-1.17933 -0.56432,-1.53409 -1.35869,-2.7431 -2.15926,-2.73515 z" /></g></svg>
